<?xml version="1.0" standalone="no"?>
<!DOCTYPE svg PUBLIC "-//W3C//DTD SVG 20010904//EN"
 "http://www.w3.org/TR/2001/REC-SVG-20010904/DTD/svg10.dtd">
<svg version="1.0" xmlns="http://www.w3.org/2000/svg"
 width="30px" height="30px" viewBox="0 0 512.000000 512.000000"
 preserveAspectRatio="xMidYMid meet">

<g transform="translate(0.000000,512.000000) scale(0.100000,-0.100000)"
fill="#000000" stroke="none">
<path d="M2550 4990 c-85 -15 -129 -31 -145 -53 -13 -19 -15 -95 -15 -595 l0
-574 -402 -513 c-222 -283 -406 -514 -410 -515 -3 0 -11 15 -17 33 -17 52 -67
103 -129 134 l-57 28 -585 0 -585 0 -59 -29 c-60 -30 -109 -84 -133 -149 -7
-19 -12 -97 -12 -195 -1 -179 8 -216 54 -228 24 -6 25 -9 25 -99 l0 -93 -29
-12 c-16 -6 -34 -24 -40 -38 -8 -19 -11 -281 -9 -907 l3 -880 22 -41 c25 -46
75 -98 118 -122 27 -15 90 -17 645 -17 684 0 640 -4 713 69 62 61 72 95 75
254 2 78 5 142 7 142 3 0 99 -47 215 -105 l212 -105 809 0 c859 0 855 0 873
45 17 46 4 91 -35 110 -24 13 -144 15 -818 15 l-791 0 -235 117 -235 118 0
841 0 842 485 617 485 618 0 558 0 558 38 8 c60 12 232 9 292 -6 142 -35 254
-122 313 -243 71 -146 70 -141 76 -760 l6 -557 23 -23 23 -23 717 -5 c663 -5
720 -6 757 -23 94 -42 155 -139 154 -242 -1 -111 -52 -195 -145 -241 l-59 -29
-401 -5 c-371 -5 -403 -6 -422 -23 -46 -42 -30 -115 29 -136 21 -7 146 -11
362 -11 229 0 342 -4 371 -12 27 -8 61 -32 98 -68 66 -67 83 -112 75 -212 -7
-104 -69 -186 -172 -230 -22 -9 -127 -13 -380 -15 -233 -3 -357 -7 -372 -15
-31 -15 -48 -70 -32 -100 25 -47 28 -47 335 -48 230 0 301 -3 342 -15 117 -35
194 -137 195 -258 0 -111 -55 -196 -158 -243 -49 -23 -57 -24 -341 -24 -187 0
-302 -4 -323 -11 -37 -13 -65 -60 -55 -92 3 -12 16 -32 27 -44 20 -23 24 -23
272 -23 289 0 325 -6 398 -70 63 -56 91 -118 91 -200 0 -106 -53 -192 -148
-243 -38 -21 -58 -22 -318 -27 -270 -5 -278 -6 -300 -27 -30 -30 -30 -86 0
-116 22 -21 30 -22 259 -25 268 -3 338 4 429 47 152 71 244 219 244 392 0 109
-28 184 -105 283 -29 37 -29 39 -10 50 55 31 128 114 162 182 76 154 50 349
-63 473 l-35 39 34 21 c46 28 121 109 145 157 85 168 66 339 -55 491 l-33 41
34 21 c91 56 166 173 188 291 42 226 -126 462 -357 500 -35 6 -325 10 -687 10
l-628 0 0 438 c0 257 -5 474 -11 527 -30 245 -124 425 -280 534 -81 57 -152
87 -257 107 -78 15 -266 17 -342 4z m-1519 -4199 c37 -37 38 -79 3 -120 -21
-25 -33 -31 -65 -31 -55 0 -89 34 -89 90 0 85 90 121 151 61z"/>
</g>
</svg>
